<svg id="Layer_5" enable-background="new 0 0 64 64" height="512" viewBox="0 0 64 64" width="512" xmlns="http://www.w3.org/2000/svg"><g><path d="m50 24h2v6h-2z"/><path d="m58 7h-7c-2.757 0-5 2.243-5 5v1h-28v-1c0-2.757-2.243-5-5-5h-7c-2.757 0-5 2.243-5 5v23.351c0 5.847.938 11.623 2.786 17.171.893 2.678 3.39 4.478 6.214 4.478s5.321-1.8 6.213-4.479l1.194-3.581c.197.024.39.06.593.06 2.414 0 4.434-1.721 4.899-4h18.202c.465 2.279 2.484 4 4.899 4 .203 0 .396-.036.593-.06l1.193 3.581c.893 2.679 3.39 4.479 6.214 4.479s5.321-1.8 6.213-4.479c1.85-5.547 2.787-11.324 2.787-17.17v-23.351c0-2.757-2.243-5-5-5zm-45 32c-1.654 0-3-1.346-3-3v-3h3.685c1.126 2.361 3.53 4 6.315 4h26c1.103 0 2-.897 2-2v-16c0-1.103-.897-2-2-2h-28c-1.103 0-2 .897-2 2v5.264c-.991.693-1.79 1.636-2.315 2.736h-3.685v-9c0-1.654 1.346-3 3-3h38c1.654 0 3 1.346 3 3v18c0 1.654-1.346 3-3 3zm8.974 2h20.051c-.442.584-.773 1.257-.924 2h-18.202c-.152-.743-.482-1.416-.925-2zm-8.894-10h-4.08v-2h4.08c-.047.328-.08.66-.08 1s.033.672.08 1zm6.92-6c2.757 0 5 2.243 5 5s-2.243 5-5 5-5-2.243-5-5 2.243-5 5-5zm-2-1.705v-4.295h28v16h-21.111c1.301-1.272 2.111-3.042 2.111-5 0-3.859-3.141-7-7-7-.695 0-1.366.105-2 .295zm-3.685 28.594c-.619 1.861-2.353 3.111-4.315 3.111s-3.696-1.25-4.316-3.111c-1.781-5.343-2.684-10.908-2.684-16.538v-23.351c0-1.654 1.346-3 3-3h7c1.654 0 3 1.346 3 3v1h-3c-2.757 0-5 2.243-5 5v9.278c-.595.347-1 .985-1 1.722v2c0 .737.405 1.375 1 1.722v3.278c0 2.757 2.243 5 5 5h1.026c-.635.838-1.026 1.87-1.026 3 0 1.846 1.017 3.444 2.51 4.31zm3.685-4.889c-1.654 0-3-1.346-3-3s1.346-3 3-3 3 1.346 3 3-1.346 3-3 3zm25-3c0-1.654 1.346-3 3-3s3 1.346 3 3-1.346 3-3 3-3-1.346-3-3zm18-8.649c0 5.631-.903 11.195-2.685 16.538-.619 1.861-2.353 3.111-4.315 3.111s-3.696-1.25-4.316-3.111l-1.193-3.579c1.492-.867 2.509-2.464 2.509-4.31 0-1.13-.391-2.162-1.026-3h1.026c2.757 0 5-2.243 5-5v-18c0-2.757-2.243-5-5-5h-3v-1c0-1.654 1.346-3 3-3h7c1.654 0 3 1.346 3 3z"/><path d="m20 33c1.654 0 3-1.346 3-3s-1.346-3-3-3-3 1.346-3 3 1.346 3 3 3zm0-4c.552 0 1 .448 1 1s-.448 1-1 1-1-.448-1-1 .448-1 1-1z"/></g></svg>