<svg height="511pt" viewBox="0 -27 511.998 511" width="511pt" xmlns="http://www.w3.org/2000/svg"><path d="m399.347656 307.976562c-4.140625 0-7.5 3.359376-7.5 7.5 0 4.140626 3.359375 7.5 7.5 7.5h55.152344c4.140625 0 7.5-3.359374 7.5-7.5v-257.480468c0-4.140625-3.359375-7.5-7.5-7.5h-397c-4.140625 0-7.5 3.359375-7.5 7.5v257.480468c0 4.140626 3.359375 7.5 7.5 7.5h311.847656c4.144532 0 7.5-3.359374 7.5-7.5 0-4.140624-3.355468-7.5-7.5-7.5h-304.347656v-242.480468h382v242.480468zm0 0"/><path d="m164.167969 186.738281c0 50.636719 41.195312 91.832031 91.832031 91.832031s91.832031-41.195312 91.832031-91.832031-41.195312-91.835937-91.832031-91.835937-91.832031 41.199218-91.832031 91.835937zm168.664062 0c0 42.363281-34.464843 76.832031-76.832031 76.832031s-76.832031-34.46875-76.832031-76.832031c0-42.367187 34.464843-76.835937 76.832031-76.835937s76.832031 34.46875 76.832031 76.835937zm0 0"/><path d="m233.332031 162.058594v49.359375c0 8.230469 6.703125 14.925781 14.941407 14.929687 3.121093 0 6.128906-.980468 8.695312-2.832031l34.238281-24.679687c3.878907-2.792969 6.191407-7.316407 6.191407-12.097657s-2.3125-9.304687-6.191407-12.101562l-34.238281-24.679688c-2.566406-1.851562-5.574219-2.828125-8.695312-2.828125-8.238282 0-14.941407 6.695313-14.941407 14.929688zm15.003907.164062 34.003906 24.515625-34.007813 24.511719zm0 0"/><path d="m475.660156.5h-328.3125c-4.140625 0-7.5 3.355469-7.5 7.5 0 4.140625 3.359375 7.5 7.5 7.5h328.3125c11.769532 0 21.339844 9.570312 21.339844 21.335938v299.800781c0 11.765625-9.570312 21.339843-21.339844 21.339843h-439.320312c-11.769532 0-21.339844-9.574218-21.339844-21.339843v-299.800781c0-11.765626 9.570312-21.335938 21.339844-21.335938h81.007812c4.140625 0 7.5-3.359375 7.5-7.5 0-4.144531-3.359375-7.5-7.5-7.5h-81.007812c-20.039063 0-36.339844 16.300781-36.339844 36.335938v299.800781c0 20.039062 16.300781 36.339843 36.339844 36.339843h171.160156v30.761719h-3.894531c-17.136719 0-32.050781 11.601563-36.265625 28.210938-3.324219 13.105469 6.890625 26.203125 20.382812 26.203125h143.21875c13.5 0 23.707032-13.113282 20.382813-26.203125-4.214844-16.609375-19.128907-28.210938-36.265625-28.210938h-3.894532v-30.761719h164.496094c20.035156 0 36.335938-16.300781 36.335938-36.339843v-299.800781c.003906-20.035157-16.296875-36.335938-36.335938-36.335938zm-138.875 435.140625c.957032 3.773437-1.957031 7.511719-5.839844 7.511719 0 0-142.773437 0-143.222656 0-3.886718 0-6.796875-3.742188-5.84375-7.511719 2.527344-9.953125 11.460938-16.902344 21.730469-16.902344h111.449219c10.269531 0 19.203125 6.949219 21.726562 16.902344zm-40.617187-31.902344h-73.667969v-30.761719h73.667969zm0 0"/></svg>